<?xml version="1.0" encoding="UTF-8"?>
<!DOCTYPE svg PUBLIC "-//W3C//DTD SVG 1.1//EN" "http://www.w3.org/Graphics/SVG/1.1/DTD/svg11.dtd">
<!-- Creator: CorelDRAW -->
<svg xmlns="http://www.w3.org/2000/svg" xml:space="preserve" width="500mm" height="300mm" version="1.1" style="shape-rendering:geometricPrecision; text-rendering:geometricPrecision; image-rendering:optimizeQuality; fill-rule:evenodd; clip-rule:evenodd"
viewBox="0 0 50000 30000"
 xmlns:xlink="http://www.w3.org/1999/xlink">
 <defs>
  <style type="text/css">
   <![CDATA[
    .fil0 {fill:#332C2B;fill-rule:nonzero}
   ]]>
  </style>
 </defs>
 <g id="图层_x0020_1">
  <metadata id="CorelCorpID_0Corel-Layer"/>
  <path class="fil0" d="M6762 6192l36554 0 0 17639 -36632 0 0 -17639 78 0zm5600 2356c65,9 117,33 155,73 50,51 75,122 75,214l0 466c0,92 -25,163 -75,214 -38,40 -90,64 -155,73l0 -141c20,-7 37,-17 50,-32 24,-26 36,-64 36,-114l0 -466c0,-50 -12,-88 -36,-114 -13,-15 -30,-25 -50,-32l0 -141zm-125 1040c-66,-9 -117,-33 -156,-72 -49,-51 -74,-123 -74,-215l0 -466c0,-92 25,-163 75,-214 38,-40 90,-64 155,-73l0 141c-20,7 -37,17 -50,32 -24,26 -36,64 -36,114l0 466c0,50 12,88 36,114 13,15 29,25 50,32l0 141zm3231 -1040c66,9 118,33 156,73 50,51 74,122 74,214l0 466c0,92 -24,163 -74,214 -39,40 -90,64 -156,73l0 -141c21,-7 38,-17 51,-32 24,-26 36,-64 36,-114l0 -466c0,-50 -12,-88 -37,-114 -13,-15 -29,-25 -50,-32l0 -141zm-124 1040c-66,-9 -118,-33 -156,-72 -50,-51 -74,-123 -74,-215l0 -466c0,-92 24,-163 74,-214 39,-40 90,-64 156,-73l0 141c-21,7 -37,17 -50,32 -24,26 -37,64 -37,114l0 466c0,50 12,88 36,114 13,15 30,25 51,32l0 141zm3159 -1040c65,9 117,33 155,73 50,51 75,122 75,214l0 466c0,92 -25,163 -75,214 -38,40 -90,64 -155,73l0 -141c20,-7 37,-17 50,-32 24,-26 36,-64 36,-114l0 -466c0,-50 -12,-88 -36,-114 -13,-15 -30,-25 -50,-32l0 -141zm-125 1040c-65,-9 -117,-33 -156,-72 -49,-51 -74,-123 -74,-215l0 -466c0,-92 25,-163 75,-214 38,-40 90,-64 155,-73l0 141c-20,7 -37,17 -50,32 -24,26 -36,64 -36,114l0 466c0,50 12,88 36,114 13,15 30,25 50,32l0 141zm3160 -1040c66,9 118,33 156,73 49,51 74,122 74,214l0 466c0,92 -25,163 -74,214 -39,40 -91,64 -156,73l0 -141c21,-7 38,-17 51,-32 24,-26 36,-64 36,-114l0 -466c0,-50 -12,-88 -37,-114 -13,-15 -29,-25 -50,-32l0 -141zm-124 1040c-66,-9 -118,-33 -156,-72 -50,-51 -74,-123 -74,-215l0 -466c0,-92 24,-163 74,-214 38,-40 90,-64 156,-73l0 141c-21,7 -38,17 -50,32 -25,26 -37,64 -37,114l0 466c0,50 12,88 36,114 13,15 30,25 51,32l0 141zm3199 -1040c66,9 118,33 156,73 49,51 74,122 74,214l0 466c0,92 -25,163 -74,214 -39,40 -91,64 -156,73l0 -141c21,-7 38,-17 50,-32 25,-26 37,-64 37,-114l0 -466c0,-50 -12,-88 -37,-114 -13,-15 -29,-25 -50,-32l0 -141zm-124 1040c-66,-9 -118,-33 -156,-72 -50,-51 -74,-123 -74,-215l0 -466c0,-92 24,-163 74,-214 38,-40 90,-64 156,-73l0 141c-21,7 -38,17 -51,32 -24,26 -36,64 -36,114l0 466c0,50 12,88 36,114 13,15 30,25 51,32l0 141zm3150 -1040c65,9 117,33 155,73 50,51 75,122 75,214l0 466c0,92 -25,163 -75,214 -38,40 -90,64 -155,73l0 -141c20,-7 37,-17 50,-32 24,-26 36,-64 36,-114l0 -466c0,-50 -12,-88 -36,-114 -13,-15 -30,-25 -50,-32l0 -141zm-125 1040c-66,-9 -117,-33 -156,-72 -49,-51 -74,-123 -74,-215l0 -466c0,-92 25,-163 75,-214 38,-40 90,-64 155,-73l0 141c-20,7 -37,17 -50,32 -24,26 -36,64 -36,114l0 466c0,50 12,88 36,114 13,15 29,25 50,32l0 141zm3190 -1040c65,9 117,33 155,73 50,51 75,122 75,214l0 466c0,92 -25,163 -75,214 -38,40 -90,64 -155,73l0 -141c20,-7 37,-17 50,-32 24,-26 36,-64 36,-114l0 -466c0,-50 -12,-88 -36,-114 -13,-15 -30,-25 -50,-32l0 -141zm-125 1040c-65,-9 -117,-33 -156,-72 -49,-51 -74,-123 -74,-215l0 -466c0,-92 25,-163 75,-214 38,-40 90,-64 155,-73l0 141c-20,7 -37,17 -50,32 -24,26 -36,64 -36,114l0 466c0,50 12,88 36,114 13,15 29,25 50,32l0 141zm3191 -1040c65,9 117,33 155,73 50,51 75,122 75,214l0 466c0,92 -25,163 -75,214 -38,40 -90,64 -155,73l0 -141c20,-7 37,-17 50,-32 24,-26 36,-64 36,-114l0 -466c0,-50 -12,-88 -36,-114 -13,-15 -30,-25 -50,-32l0 -141zm-125 1040c-65,-9 -117,-33 -156,-72 -49,-51 -74,-123 -74,-215l0 -466c0,-92 25,-163 75,-214 38,-40 90,-64 155,-73l0 141c-20,7 -37,17 -50,32 -24,26 -36,64 -36,114l0 466c0,50 12,88 36,114 13,15 29,25 50,32l0 141zm-12628 -381l0 -278 -368 139 368 139zm-3002 0l0 -278 -368 139 368 139zm-3062 0l0 -278 -368 139 368 139zm-3078 0l0 -278 -369 139 369 139zm17170 0l0 -278 368 139 -368 139zm3002 0l0 -278 369 139 -369 139zm3062 0l0 -278 369 139 -369 139zm-21920 -652l144 0 0 868 145 -90 0 149 -145 97 -144 0 0 -1024zm3435 124l-357 477c-21,27 -37,55 -48,85 -12,29 -18,56 -18,82l0 1c0,41 12,73 36,95 24,23 58,34 102,34 42,0 76,-12 102,-37 26,-25 41,-60 47,-105l0 0 149 0 0 0c-9,59 -26,109 -52,151 -26,41 -60,73 -101,95 -41,22 -89,33 -143,33 -61,0 -113,-11 -157,-32 -43,-21 -76,-51 -98,-91 -23,-40 -34,-88 -34,-144l0 -1c0,-36 7,-74 23,-113 14,-40 35,-78 62,-115l297 -403 -388 0 0 -136 578 0 0 124zm2772 -135c57,0 107,11 151,31 44,21 79,52 106,91 26,40 43,88 50,144l0 0 -147 0 0 0c-4,-30 -13,-53 -27,-72 -14,-19 -33,-33 -55,-42 -22,-9 -48,-14 -78,-14 -48,0 -85,13 -111,38 -26,26 -39,61 -39,107l0 31c0,52 12,91 37,119 25,28 60,42 106,42l72 0 0 137 -72 0c-40,0 -71,12 -93,35 -22,24 -34,58 -34,102l0 32c0,40 12,71 35,93 24,23 57,33 99,33 25,0 47,-4 66,-13 19,-9 35,-23 49,-42 13,-20 23,-43 29,-72l0 0 146 0 0 0c-9,56 -27,104 -53,144 -26,40 -59,70 -99,91 -40,20 -86,31 -138,31 -88,0 -156,-24 -205,-70 -48,-47 -72,-112 -72,-197l0 -17c0,-51 14,-95 41,-134 28,-38 67,-65 118,-83 -56,-12 -99,-39 -130,-82 -31,-43 -46,-97 -46,-164l0 -16c0,-60 11,-111 34,-153 24,-43 57,-75 101,-97 44,-22 97,-33 159,-33zm3372 292l-344 742 -148 0 336 -733 -503 0 0 -133 659 0 0 124zm-442 321l-140 0 0 -603 140 0 0 603zm3181 -613c52,0 98,10 138,30 40,21 73,50 98,88 25,39 42,85 50,139l0 1 -143 0 0 -1c-5,-37 -20,-66 -45,-87 -25,-21 -58,-32 -98,-32 -45,0 -81,15 -106,46 -25,31 -38,74 -38,130l0 86c0,56 13,99 38,130 25,30 61,46 106,46 26,0 49,-7 72,-21 23,-15 44,-34 61,-60l131 0 0 540 -522 0 0 -137 378 0 0 -230c-18,15 -37,26 -60,34 -22,8 -44,12 -67,12 -59,0 -110,-12 -152,-37 -42,-24 -74,-60 -96,-107 -22,-47 -33,-103 -33,-170l0 -86c0,-66 12,-123 34,-169 23,-48 56,-83 99,-108 43,-25 95,-37 155,-37zm3361 292l-344 742 -147 0 335 -733 -502 0 0 -133 658 0 0 124zm-441 321l-141 0 0 -603 141 0 0 603zm3170 -613c57,0 107,11 151,31 44,21 79,52 106,91 26,40 43,88 50,144l0 0 -147 0 0 0c-4,-30 -13,-53 -27,-72 -14,-19 -33,-33 -55,-42 -22,-9 -48,-14 -78,-14 -48,0 -85,13 -111,38 -26,26 -39,61 -39,107l0 31c0,52 12,91 37,119 25,28 60,42 106,42l72 0 0 137 -72 0c-40,0 -71,12 -93,35 -23,24 -34,58 -34,102l0 32c0,40 12,71 35,93 24,23 57,33 99,33 25,0 47,-4 66,-13 19,-9 35,-23 49,-42 13,-20 23,-43 29,-72l0 0 146 0 0 0c-9,56 -27,104 -53,144 -26,40 -59,70 -99,91 -40,20 -86,31 -138,31 -88,0 -156,-24 -205,-70 -48,-47 -72,-112 -72,-197l0 -17c0,-51 14,-95 41,-134 28,-38 67,-65 118,-83 -56,-12 -99,-39 -130,-82 -31,-43 -46,-97 -46,-164l0 -16c0,-60 11,-111 34,-153 23,-43 57,-75 101,-97 44,-22 97,-33 159,-33zm3329 135l-358 477c-20,27 -36,55 -48,85 -11,29 -17,56 -17,82l0 1c0,41 12,73 36,95 24,23 58,34 102,34 42,0 76,-12 101,-37 26,-25 42,-60 48,-105l0 0 148 0 0 0c-8,59 -25,109 -52,151 -26,41 -59,73 -101,95 -41,22 -89,33 -143,33 -61,0 -113,-11 -156,-32 -43,-21 -76,-51 -99,-91 -22,-40 -34,-88 -34,-144l0 -1c0,-36 8,-74 23,-113 15,-40 36,-78 63,-115l296 -403 -387 0 0 -136 578 0 0 124zm1900 -131c66,9 118,33 156,73 49,51 74,122 74,214l0 466c0,92 -25,163 -74,214 -39,40 -91,64 -156,73l0 -141c21,-7 38,-17 50,-32 24,-26 36,-64 36,-114l0 -466c0,-50 -12,-88 -36,-114 -13,-15 -30,-25 -50,-32l0 -141zm-124 1040c-66,-9 -118,-33 -156,-72 -50,-51 -75,-123 -75,-215l0 -466c0,-92 25,-163 75,-214 38,-40 90,-64 156,-73l0 141c-21,7 -38,17 -51,32 -24,26 -36,64 -36,114l0 466c0,50 12,88 36,114 13,15 30,25 51,32l0 141zm824 -1033l144 0 0 868 145 -90 0 149 -145 97 -144 0 0 -1024zm488 652l0 -278 369 139 -369 139zm-309 12267c-66,-9 -117,-33 -156,-73 -49,-51 -74,-122 -74,-214l0 -466c0,-91 25,-163 75,-214 38,-39 90,-64 155,-73l0 142c-21,6 -37,17 -50,31 -24,27 -36,65 -36,114l0 466c0,50 12,88 36,115 13,14 30,24 50,31l0 141zm125 -1040c65,9 117,34 155,73 50,50 75,122 75,214l0 466c0,92 -25,164 -75,215 -38,39 -90,63 -155,72l0 -141c20,-7 37,-17 50,-31 24,-27 36,-65 36,-115l0 -466c0,-49 -12,-87 -36,-114 -13,-14 -30,-25 -50,-31l0 -142zm-3231 1040c-66,-9 -118,-33 -156,-73 -50,-51 -75,-122 -75,-214l0 -466c0,-91 25,-163 75,-214 38,-39 90,-64 156,-73l0 142c-21,6 -38,17 -51,31 -24,27 -36,65 -36,114l0 466c0,50 12,88 36,115 13,14 30,24 51,31l0 141zm124 -1040c66,9 118,34 156,73 49,50 74,122 74,214l0 466c0,92 -25,164 -75,215 -38,39 -90,63 -155,72l0 -141c20,-7 37,-17 50,-31 24,-27 36,-65 36,-115l0 -466c0,-49 -12,-87 -36,-114 -13,-14 -29,-25 -50,-31l0 -142zm-3159 1040c-66,-9 -118,-33 -156,-73 -49,-51 -74,-122 -74,-214l0 -466c0,-91 25,-163 74,-214 39,-39 91,-64 156,-73l0 142c-21,6 -38,17 -50,31 -24,27 -37,65 -37,114l0 466c0,50 13,88 37,115 13,14 30,24 50,31l0 141zm124 -1040c66,9 118,34 156,73 50,50 75,122 75,214l0 466c0,92 -25,164 -75,215 -38,39 -90,63 -156,72l0 -141c21,-7 38,-17 51,-31 24,-27 36,-65 36,-115l0 -466c0,-49 -12,-87 -36,-114 -13,-14 -30,-25 -51,-31l0 -142zm-3159 1040c-66,-9 -118,-33 -156,-73 -50,-51 -75,-122 -75,-214l0 -466c0,-91 25,-163 75,-214 38,-39 90,-64 156,-73l0 142c-21,6 -38,17 -51,31 -24,27 -36,65 -36,114l0 466c0,50 12,88 36,115 13,14 30,24 51,31l0 141zm124 -1040c66,9 118,34 156,73 49,50 74,122 74,214l0 466c0,92 -25,164 -74,215 -39,39 -91,63 -156,72l0 -141c20,-7 37,-17 50,-31 24,-27 36,-65 36,-115l0 -466c0,-49 -11,-87 -36,-114 -12,-14 -29,-25 -50,-31l0 -142zm-3199 1040c-66,-9 -118,-33 -156,-73 -50,-51 -74,-122 -74,-214l0 -466c0,-91 24,-163 74,-214 38,-39 90,-64 156,-73l0 142c-21,6 -38,17 -51,31 -24,27 -36,65 -36,114l0 466c0,50 12,88 36,115 13,14 30,24 51,31l0 141zm124 -1040c66,9 118,34 156,73 49,50 74,122 74,214l0 466c0,92 -25,164 -74,215 -39,39 -91,63 -156,72l0 -141c21,-7 37,-17 50,-31 24,-27 36,-65 36,-115l0 -466c0,-49 -11,-87 -35,-114 -13,-14 -30,-25 -51,-31l0 -142zm-3150 1040c-66,-9 -117,-33 -156,-73 -49,-51 -74,-122 -74,-214l0 -466c0,-91 25,-163 75,-214 38,-39 90,-64 155,-73l0 142c-21,6 -38,17 -50,31 -24,27 -36,65 -36,114l0 466c0,50 12,88 36,115 13,14 30,24 50,31l0 141zm125 -1040c65,9 117,34 155,73 50,50 75,122 75,214l0 466c0,92 -25,164 -75,215 -38,39 -90,63 -155,72l0 -141c20,-7 37,-17 50,-31 24,-27 36,-65 36,-115l0 -466c0,-49 -12,-87 -36,-114 -13,-14 -30,-25 -50,-31l0 -142zm-3190 1040c-66,-9 -118,-33 -156,-73 -49,-51 -74,-122 -74,-214l0 -466c0,-91 25,-163 75,-214 38,-39 90,-64 155,-73l0 142c-21,6 -38,17 -50,31 -24,27 -36,65 -36,114l0 466c0,50 12,88 36,115 13,14 30,24 50,31l0 141zm124 -1040c66,9 118,34 156,73 50,50 75,122 75,214l0 466c0,92 -25,164 -75,215 -38,39 -90,63 -156,72l0 -141c21,-7 38,-17 51,-31 24,-27 36,-65 36,-115l0 -466c0,-49 -12,-87 -36,-114 -13,-14 -30,-25 -51,-31l0 -142zm-3190 1040c-66,-9 -117,-33 -156,-73 -49,-51 -74,-122 -74,-214l0 -466c0,-91 25,-163 75,-214 38,-39 90,-64 155,-73l0 142c-21,6 -38,17 -50,31 -24,27 -36,65 -36,114l0 466c0,50 12,88 36,115 13,14 30,24 50,31l0 141zm124 -1040c66,9 118,34 156,73 50,50 75,122 75,214l0 466c0,92 -25,164 -75,215 -38,39 -90,63 -156,72l0 -141c21,-7 38,-17 51,-31 24,-27 36,-65 36,-115l0 -466c0,-49 -12,-87 -36,-114 -13,-14 -30,-25 -51,-31l0 -142zm12628 382l0 277 369 -139 -369 -138zm3002 0l0 277 369 -139 -369 -138zm3063 0l0 277 368 -139 -368 -138zm3078 0l0 277 369 -139 -369 -138zm-17170 0l0 277 -369 -139 369 -138zm-3002 0l0 277 -369 -139 369 -138zm-3062 0l0 277 -369 -139 369 -138zm21920 652l-144 0 0 -868 -146 89 0 -148 146 -98 144 0 0 1025zm-3435 -125l357 -476c20,-28 37,-56 48,-85 12,-30 17,-57 17,-82l0 -2c0,-41 -12,-72 -36,-95 -23,-23 -58,-34 -102,-34 -41,0 -75,13 -101,37 -26,25 -42,60 -47,105l0 1 -149 0 0 -1c8,-59 26,-109 52,-151 26,-41 59,-73 101,-94 41,-22 89,-33 143,-33 61,0 113,10 156,31 44,21 76,51 99,91 22,40 34,88 34,145l0 0c0,37 -8,74 -23,114 -15,39 -36,77 -63,114l-296 403 387 0 0 137 -577 0 0 -125zm-2772 135c-57,0 -108,-10 -151,-31 -44,-21 -79,-51 -106,-91 -26,-40 -43,-88 -50,-144l0 0 146 0 0 0c5,30 14,54 28,72 14,19 32,33 54,42 23,10 49,14 79,14 47,0 84,-13 111,-38 26,-25 39,-61 39,-107l0 -31c0,-51 -12,-91 -37,-119 -25,-28 -60,-42 -106,-42l-72 0 0 -136 72 0c40,0 71,-12 93,-36 22,-24 33,-58 33,-102l0 -31c0,-41 -12,-72 -35,-94 -23,-22 -56,-33 -99,-33 -24,0 -46,4 -65,14 -19,9 -36,23 -49,42 -14,19 -23,43 -30,71l0 0 -145 0 0 0c9,-56 27,-104 53,-144 26,-39 59,-70 99,-90 40,-21 86,-31 137,-31 89,0 157,23 205,69 49,47 73,112 73,197l0 17c0,51 -14,96 -42,134 -27,38 -67,65 -117,83 56,12 99,39 130,82 30,43 46,97 46,164l0 17c0,59 -12,110 -35,153 -23,42 -56,74 -100,96 -44,22 -97,33 -159,33zm-3372 -292l344 -742 148 0 -336 733 503 0 0 134 -659 0 0 -125zm442 -321l140 0 0 603 -140 0 0 -603zm-3182 613c-51,0 -97,-10 -138,-30 -40,-20 -72,-50 -97,-88 -26,-39 -42,-85 -51,-139l0 -1 144 0 0 1c5,38 20,67 45,88 25,21 57,31 97,31 46,0 82,-15 107,-46 25,-31 38,-74 38,-130l0 -86c0,-56 -13,-99 -38,-129 -25,-31 -61,-47 -107,-47 -25,0 -49,8 -72,22 -23,14 -43,34 -60,59l-131 0 0 -540 522 0 0 137 -379 0 0 230c18,-14 38,-26 60,-34 22,-7 45,-12 68,-12 59,0 110,13 152,37 42,25 74,60 96,107 22,47 32,104 32,170l0 86c0,66 -11,123 -33,170 -23,47 -56,83 -99,107 -43,25 -95,37 -156,37zm-3361 -292l344 -742 148 0 -335 733 502 0 0 134 -659 0 0 -125zm442 -321l140 0 0 603 -140 0 0 -603zm-3170 613c-57,0 -108,-10 -151,-31 -44,-21 -79,-51 -106,-91 -26,-40 -43,-88 -50,-144l0 0 146 0 0 0c5,30 14,54 28,72 14,19 32,33 54,42 23,10 49,14 79,14 47,0 84,-13 111,-38 26,-25 39,-61 39,-107l0 -31c0,-51 -12,-91 -37,-119 -25,-28 -60,-42 -106,-42l-72 0 0 -136 72 0c40,0 71,-12 93,-36 22,-24 33,-58 33,-102l0 -31c0,-41 -11,-72 -35,-94 -23,-22 -56,-33 -99,-33 -24,0 -46,4 -65,14 -19,9 -36,23 -49,42 -14,19 -23,43 -29,71l0 0 -146 0 0 0c9,-56 27,-104 53,-144 26,-39 59,-70 99,-90 40,-21 86,-31 137,-31 89,0 157,23 205,69 49,47 73,112 73,197l0 17c0,51 -14,96 -42,134 -27,38 -67,65 -117,83 56,12 99,39 130,82 31,43 46,97 46,164l0 17c0,59 -12,110 -35,153 -23,42 -56,74 -100,96 -44,22 -97,33 -159,33zm-3329 -135l357 -476c21,-28 37,-56 49,-85 11,-30 17,-57 17,-82l0 -2c0,-41 -12,-72 -36,-95 -24,-23 -58,-34 -102,-34 -42,0 -76,13 -102,37 -26,25 -41,60 -47,105l0 1 -149 0 0 -1c9,-59 26,-109 52,-151 26,-41 60,-73 101,-94 42,-22 89,-33 144,-33 61,0 113,10 156,31 43,21 76,51 98,91 23,40 34,88 34,145l0 0c0,37 -7,74 -22,114 -15,39 -36,77 -63,114l-297 403 388 0 0 137 -578 0 0 -125zm-1900 131c-66,-9 -118,-33 -156,-73 -50,-51 -74,-122 -74,-214l0 -466c0,-91 24,-163 74,-214 39,-39 90,-64 156,-73l0 142c-21,6 -38,17 -51,31 -24,27 -36,65 -36,114l0 466c0,50 12,88 37,115 13,14 29,24 50,31l0 141zm124 -1040c66,9 118,34 156,73 50,50 74,122 74,214l0 466c0,92 -24,164 -74,215 -39,39 -90,63 -156,72l0 -141c21,-7 37,-17 50,-31 24,-27 36,-65 36,-115l0 -466c0,-49 -11,-87 -35,-114 -13,-14 -30,-25 -51,-31l0 -142zm-836 1034l-144 0 0 -868 -146 89 0 -148 146 -98 144 0 0 1025zm-476 -652l0 277 -369 -139 369 -138zm30280 -11371l0 -832 -448 0 0 766c0,57 -13,99 -38,126 -25,28 -59,42 -100,42 -41,0 -75,-14 -101,-41 -26,-28 -39,-70 -39,-127l0 -766 -519 0 0 860c0,58 -14,102 -40,131 -27,30 -63,45 -108,45 -43,0 -78,-15 -105,-45 -26,-29 -40,-73 -40,-131l0 -1003c0,-80 18,-138 54,-173 35,-35 93,-53 172,-53l1371 0c53,0 96,8 130,24 33,16 58,40 73,74 15,33 23,76 23,128l0 975c0,59 -13,103 -39,131 -26,28 -61,43 -103,43 -43,0 -78,-15 -104,-43 -26,-28 -39,-72 -39,-131zm94 1106l-1074 710 1084 0c71,0 123,15 158,45 36,30 53,71 53,122 0,53 -17,95 -52,126 -35,30 -88,45 -159,45l-1433 0c-160,0 -239,-66 -239,-198 0,-33 4,-63 14,-90 9,-26 25,-51 45,-74 21,-23 45,-44 73,-64 28,-20 56,-40 85,-60l1061 -692 -1067 0c-70,0 -122,-16 -158,-49 -36,-32 -53,-74 -53,-124 0,-53 17,-95 54,-126 36,-32 88,-47 157,-47l1405 0c60,0 107,6 141,19 37,16 67,43 91,79 24,36 35,76 35,118 0,33 -5,62 -16,85 -11,24 -25,45 -43,63 -19,17 -42,36 -71,54 -29,19 -59,39 -91,58zm191 1809l0 481c0,125 -12,232 -35,322 -23,90 -67,171 -131,244 -162,189 -409,284 -741,284 -109,0 -209,-9 -299,-28 -91,-19 -172,-49 -245,-88 -72,-40 -137,-91 -194,-153 -44,-49 -79,-103 -106,-161 -26,-58 -45,-120 -56,-187 -10,-66 -16,-142 -16,-226l0 -481c0,-67 10,-117 31,-152 20,-33 49,-56 85,-66 37,-10 85,-15 144,-15l1337 0c79,0 137,17 172,53 36,36 54,93 54,173zm-293 143l-1237 0 0 280c0,61 2,109 5,144 3,35 11,71 25,108 13,37 32,70 56,97 104,123 284,185 539,185 180,0 315,-27 405,-81 89,-54 146,-122 171,-201 24,-80 36,-176 36,-288l0 -244zm-1104 1592l1119 936 0 -804c0,-57 13,-99 38,-128 25,-29 57,-43 98,-43 42,0 77,14 103,43 26,29 39,71 39,128l0 1036c0,135 -63,202 -188,202 -60,0 -107,-11 -143,-34 -36,-22 -93,-67 -173,-135l-1041 -876 0 965c0,57 -12,100 -36,128 -23,28 -56,42 -99,42 -44,0 -78,-14 -104,-42 -26,-28 -39,-71 -39,-128l0 -1184c0,-80 18,-140 54,-181 37,-40 84,-61 145,-61 21,0 40,4 57,10 18,7 34,16 50,27 15,11 34,26 58,46 24,20 44,38 62,53zm1427 2621c0,189 -38,351 -115,487 -76,135 -185,238 -326,307 -142,70 -307,105 -498,105 -141,0 -269,-19 -384,-58 -115,-38 -215,-95 -299,-171 -85,-76 -149,-170 -194,-281 -45,-111 -67,-238 -67,-381 0,-143 23,-270 69,-383 46,-113 111,-207 194,-282 84,-76 184,-132 302,-171 118,-39 245,-58 382,-58 140,0 268,20 385,61 117,40 216,98 298,174 82,76 145,169 188,279 44,109 65,233 65,372zm-936 525c133,0 249,-22 347,-65 97,-43 171,-105 222,-184 50,-80 75,-172 75,-276 0,-73 -14,-142 -42,-204 -28,-63 -68,-117 -121,-162 -53,-45 -121,-80 -204,-106 -82,-26 -175,-40 -277,-40 -104,0 -198,14 -282,40 -83,26 -153,63 -208,110 -55,48 -96,102 -123,164 -28,62 -42,129 -42,203 0,95 24,181 71,261 47,79 120,141 219,189 99,46 220,70 365,70zm715 1299l-1074 709 1084 0c71,0 123,15 158,45 36,31 53,71 53,123 0,52 -17,94 -52,125 -35,30 -88,46 -159,46l-1433 0c-160,0 -239,-67 -239,-199 0,-33 4,-63 14,-89 9,-27 25,-52 45,-75 21,-23 45,-44 73,-64 28,-20 56,-40 85,-60l1061 -692 -1067 0c-70,0 -122,-16 -158,-48 -36,-33 -53,-75 -53,-125 0,-52 17,-94 54,-126 36,-32 88,-47 157,-47l1405 0c60,0 107,7 141,20 37,15 67,42 91,78 24,37 35,76 35,118 0,34 -5,62 -16,85 -11,24 -25,45 -43,63 -19,18 -42,36 -71,55 -29,18 -59,38 -91,58zm-94 2780l0 -832 -448 0 0 766c0,57 -13,99 -38,126 -25,28 -59,42 -100,42 -41,0 -75,-14 -101,-41 -26,-28 -39,-70 -39,-127l0 -766 -519 0 0 860c0,59 -14,102 -40,131 -27,30 -63,45 -108,45 -43,0 -78,-15 -105,-45 -26,-29 -40,-72 -40,-131l0 -1003c0,-80 18,-137 54,-173 35,-35 93,-53 172,-53l1371 0c53,0 96,8 130,24 33,16 58,40 73,74 15,33 23,76 23,128l0 975c0,59 -13,103 -39,131 -26,28 -61,43 -103,43 -43,0 -78,-15 -104,-43 -26,-28 -39,-72 -39,-131zm-34704 -1031l0 831 448 0 0 -766c0,-56 13,-98 38,-126 25,-28 59,-41 100,-41 41,0 75,13 101,40 26,28 39,70 39,127l0 766 519 0 0 -860c0,-58 14,-102 40,-131 27,-30 63,-45 108,-45 43,0 78,15 105,45 26,29 40,73 40,131l0 1003c0,80 -18,138 -54,173 -35,35 -93,53 -172,53l-1371 0c-53,0 -96,-8 -130,-24 -33,-15 -58,-40 -73,-73 -15,-34 -23,-77 -23,-129l0 -974c0,-59 13,-103 39,-132 26,-28 61,-42 103,-42 43,0 78,14 104,42 26,29 39,73 39,132zm-94 -1107l1074 -709 -1084 0c-71,0 -123,-16 -158,-46 -36,-30 -53,-71 -53,-122 0,-53 17,-95 52,-125 35,-31 88,-46 159,-46l1433 0c160,0 239,66 239,199 0,33 -4,62 -14,89 -9,26 -25,51 -45,74 -21,24 -45,45 -73,65 -28,20 -56,40 -85,60l-1061 692 1067 0c70,0 122,16 158,48 36,33 53,74 53,125 0,52 -17,94 -54,125 -36,32 -88,48 -157,48l-1405 0c-60,0 -107,-7 -141,-20 -37,-16 -67,-42 -91,-79 -24,-36 -35,-75 -35,-117 0,-34 5,-62 16,-86 11,-24 25,-44 43,-62 19,-18 42,-36 71,-55 29,-19 59,-38 91,-58zm-191 -1808l0 -481c0,-126 12,-233 35,-322 23,-90 67,-171 131,-244 162,-190 409,-285 741,-285 109,0 209,9 299,28 91,19 172,49 245,89 72,40 137,90 194,153 44,49 79,102 106,160 26,58 45,121 56,187 10,67 16,142 16,226l0 481c0,67 -10,118 -31,152 -20,34 -49,56 -85,66 -37,11 -85,16 -144,16l-1337 0c-79,0 -137,-18 -172,-54 -36,-35 -54,-93 -54,-172zm293 -143l1237 0 0 -280c0,-61 -2,-110 -5,-144 -3,-35 -11,-71 -25,-109 -13,-37 -32,-69 -56,-96 -104,-124 -284,-186 -539,-186 -180,0 -315,27 -405,82 -89,54 -146,121 -171,200 -24,80 -36,176 -36,289l0 244zm1104 -1592l-1119 -936 0 804c0,56 -13,99 -38,127 -25,29 -57,43 -98,43 -42,0 -77,-14 -103,-43 -26,-28 -39,-71 -39,-127l0 -1037c0,-134 63,-201 188,-201 60,0 107,11 143,33 36,23 93,68 173,136l1041 875 0 -965c0,-57 12,-99 36,-127 23,-29 56,-43 99,-43 44,0 78,14 104,43 26,28 39,70 39,127l0 1184c0,80 -18,141 -54,181 -37,41 -84,61 -145,61 -21,0 -40,-3 -57,-10 -18,-6 -34,-15 -50,-26 -15,-12 -34,-27 -58,-47 -24,-20 -44,-37 -62,-52zm-1427 -2622c0,-189 38,-351 115,-486 76,-136 185,-238 326,-308 142,-70 307,-104 498,-104 141,0 269,19 384,57 115,38 215,95 299,171 85,77 149,170 194,281 45,111 67,238 67,382 0,142 -23,270 -69,382 -46,113 -111,207 -194,283 -84,75 -184,132 -302,170 -118,39 -245,58 -382,58 -140,0 -268,-20 -385,-60 -117,-40 -216,-98 -298,-175 -82,-76 -145,-169 -188,-278 -44,-109 -65,-234 -65,-373zm936 -524c-133,0 -249,22 -347,64 -97,44 -171,105 -222,185 -50,80 -75,172 -75,275 0,74 14,142 42,204 28,63 68,117 121,162 53,45 121,81 203,107 83,26 176,39 278,39 104,0 198,-13 282,-39 83,-26 153,-63 208,-111 55,-47 96,-102 123,-164 28,-61 42,-129 42,-203 0,-94 -24,-181 -71,-260 -47,-79 -120,-142 -219,-189 -99,-47 -220,-70 -365,-70zm-715 -1299l1074 -710 -1084 0c-71,0 -123,-15 -158,-45 -36,-30 -53,-71 -53,-122 0,-53 17,-95 52,-125 35,-31 88,-46 159,-46l1433 0c160,0 239,66 239,198 0,33 -4,63 -14,90 -9,26 -25,51 -45,74 -21,23 -45,45 -73,65 -28,20 -56,40 -85,59l-1061 692 1067 0c70,0 122,17 158,49 36,33 53,74 53,125 0,52 -17,94 -54,125 -36,32 -88,48 -157,48l-1405 0c-60,0 -107,-7 -141,-20 -37,-16 -67,-42 -91,-79 -24,-36 -35,-76 -35,-118 0,-33 5,-62 16,-85 11,-24 25,-45 43,-62 19,-18 42,-36 71,-55 29,-19 59,-38 91,-58zm94 -2780l0 831 448 0 0 -766c0,-56 13,-98 38,-126 25,-28 59,-41 100,-41 41,0 75,13 101,40 26,28 39,70 39,127l0 766 519 0 0 -860c0,-58 14,-102 40,-131 27,-30 63,-45 108,-45 43,0 78,15 105,45 26,29 40,73 40,131l0 1003c0,80 -18,138 -54,173 -35,35 -93,53 -172,53l-1371 0c-53,0 -96,-8 -130,-24 -33,-15 -58,-40 -73,-73 -15,-34 -23,-77 -23,-129l0 -974c0,-59 13,-103 39,-132 26,-28 61,-42 103,-42 43,0 78,14 104,42 26,29 39,73 39,132zm31683 6329l0 536 -156 0 0 -536 156 0zm-28386 0l0 536 -156 0 0 -536 156 0zm29154 2274l0 537 -124 0 0 -537 124 0zm-298 0l0 537 -125 0 0 -537 125 0zm-299 0l0 537 -124 0 0 -537 124 0zm-298 0l0 537 -124 0 0 -537 124 0zm-630 0l0 537 -124 0 0 -537 124 0zm-298 0l0 537 -125 0 0 -537 125 0zm-299 0l0 537 -124 0 0 -537 124 0zm-298 0l0 537 -125 0 0 -537 125 0zm-630 0l0 537 -125 0 0 -537 125 0zm-298 0l0 537 -125 0 0 -537 125 0zm-299 0l0 537 -124 0 0 -537 124 0zm-298 0l0 537 -125 0 0 -537 125 0zm-630 0l0 537 -125 0 0 -537 125 0zm-299 0l0 537 -124 0 0 -537 124 0zm-298 0l0 537 -124 0 0 -537 124 0zm-298 0l0 537 -125 0 0 -537 125 0zm-630 0l0 537 -125 0 0 -537 125 0zm-299 0l0 537 -124 0 0 -537 124 0zm-298 0l0 537 -125 0 0 -537 125 0zm-298 0l0 537 -125 0 0 -537 125 0zm-630 0l0 537 -125 0 0 -537 125 0zm-299 0l0 537 -124 0 0 -537 124 0zm-298 0l0 537 -125 0 0 -537 125 0zm-299 0l0 537 -124 0 0 -537 124 0zm-629 0l0 537 -125 0 0 -537 125 0zm-299 0l0 537 -124 0 0 -537 124 0zm-298 0l0 537 -125 0 0 -537 125 0zm-299 0l0 537 -124 0 0 -537 124 0zm-630 0l0 537 -124 0 0 -537 124 0zm-298 0l0 537 -125 0 0 -537 125 0zm-298 0l0 537 -125 0 0 -537 125 0zm-299 0l0 537 -124 0 0 -537 124 0zm-630 0l0 537 -124 0 0 -537 124 0zm-298 0l0 537 -125 0 0 -537 125 0zm-299 0l0 537 -124 0 0 -537 124 0zm-298 0l0 537 -124 0 0 -537 124 0zm-630 0l0 537 -124 0 0 -537 124 0zm-298 0l0 537 -125 0 0 -537 125 0zm-299 0l0 537 -124 0 0 -537 124 0zm-298 0l0 537 -125 0 0 -537 125 0zm-630 0l0 537 -124 0 0 -537 124 0zm-298 0l0 537 -125 0 0 -537 125 0zm-299 0l0 537 -124 0 0 -537 124 0zm-298 0l0 537 -125 0 0 -537 125 0zm-630 0l0 537 -125 0 0 -537 125 0zm-298 0l0 537 -125 0 0 -537 125 0zm-299 0l0 537 -124 0 0 -537 124 0zm-298 0l0 537 -125 0 0 -537 125 0zm-630 0l0 537 -125 0 0 -537 125 0zm-299 0l0 537 -124 0 0 -537 124 0zm-298 0l0 537 -125 0 0 -537 125 0zm-298 0l0 537 -125 0 0 -537 125 0zm-630 0l0 537 -125 0 0 -537 125 0zm-299 0l0 537 -124 0 0 -537 124 0zm-298 0l0 537 -125 0 0 -537 125 0zm-299 0l0 537 -124 0 0 -537 124 0zm-629 0l0 537 -125 0 0 -537 125 0zm-299 0l0 537 -124 0 0 -537 124 0zm-298 0l0 537 -125 0 0 -537 125 0zm-299 0l0 537 -124 0 0 -537 124 0zm-630 0l0 537 -124 0 0 -537 124 0zm-298 0l0 537 -124 0 0 -537 124 0zm-298 0l0 537 -125 0 0 -537 125 0zm-299 0l0 537 -124 0 0 -537 124 0zm-630 0l0 537 -124 0 0 -537 124 0zm-298 0l0 537 -125 0 0 -537 125 0zm-298 0l0 537 -125 0 0 -537 125 0zm-299 0l0 537 -124 0 0 -537 124 0zm-630 0l0 537 -124 0 0 -537 124 0zm-298 0l0 537 -125 0 0 -537 125 0zm-299 0l0 537 -124 0 0 -537 124 0zm-298 0l0 537 -125 0 0 -537 125 0zm-630 0l0 537 -124 0 0 -537 124 0zm-298 0l0 537 -125 0 0 -537 125 0zm-299 0l0 537 -124 0 0 -537 124 0zm-298 0l0 537 -125 0 0 -537 125 0zm-630 0l0 537 -125 0 0 -537 125 0zm-298 0l0 537 -125 0 0 -537 125 0zm-299 0l0 537 -124 0 0 -537 124 0zm-298 0l0 537 -125 0 0 -537 125 0zm28977 -4549l0 537 -124 0 0 -537 124 0zm298 0l0 537 -124 0 0 -537 124 0zm299 0l0 537 -125 0 0 -537 125 0zm298 0l0 537 -124 0 0 -537 124 0zm-2420 0l0 537 -125 0 0 -537 125 0zm298 0l0 537 -124 0 0 -537 124 0zm299 0l0 537 -125 0 0 -537 125 0zm298 0l0 537 -124 0 0 -537 124 0zm-2420 0l0 537 -125 0 0 -537 125 0zm298 0l0 537 -124 0 0 -537 124 0zm299 0l0 537 -125 0 0 -537 125 0zm298 0l0 537 -125 0 0 -537 125 0zm-2420 0l0 537 -125 0 0 -537 125 0zm298 0l0 537 -124 0 0 -537 124 0zm298 0l0 537 -124 0 0 -537 124 0zm299 0l0 537 -125 0 0 -537 125 0zm-2420 0l0 537 -125 0 0 -537 125 0zm298 0l0 537 -125 0 0 -537 125 0zm298 0l0 537 -124 0 0 -537 124 0zm299 0l0 537 -125 0 0 -537 125 0zm-2421 0l0 537 -124 0 0 -537 124 0zm299 0l0 537 -125 0 0 -537 125 0zm298 0l0 537 -124 0 0 -537 124 0zm299 0l0 537 -125 0 0 -537 125 0zm-2421 0l0 537 -124 0 0 -537 124 0zm299 0l0 537 -125 0 0 -537 125 0zm298 0l0 537 -124 0 0 -537 124 0zm299 0l0 537 -125 0 0 -537 125 0zm-2421 0l0 537 -124 0 0 -537 124 0zm299 0l0 537 -125 0 0 -537 125 0zm298 0l0 537 -125 0 0 -537 125 0zm298 0l0 537 -124 0 0 -537 124 0zm-2420 0l0 537 -124 0 0 -537 124 0zm298 0l0 537 -124 0 0 -537 124 0zm299 0l0 537 -125 0 0 -537 125 0zm298 0l0 537 -124 0 0 -537 124 0zm-2420 0l0 537 -125 0 0 -537 125 0zm298 0l0 537 -124 0 0 -537 124 0zm299 0l0 537 -125 0 0 -537 125 0zm298 0l0 537 -124 0 0 -537 124 0zm-2420 0l0 537 -125 0 0 -537 125 0zm298 0l0 537 -124 0 0 -537 124 0zm299 0l0 537 -125 0 0 -537 125 0zm298 0l0 537 -124 0 0 -537 124 0zm-2420 0l0 537 -125 0 0 -537 125 0zm298 0l0 537 -124 0 0 -537 124 0zm299 0l0 537 -125 0 0 -537 125 0zm298 0l0 537 -125 0 0 -537 125 0zm-2420 0l0 537 -125 0 0 -537 125 0zm298 0l0 537 -125 0 0 -537 125 0zm298 0l0 537 -124 0 0 -537 124 0zm299 0l0 537 -125 0 0 -537 125 0zm-2421 0l0 537 -124 0 0 -537 124 0zm299 0l0 537 -125 0 0 -537 125 0zm298 0l0 537 -124 0 0 -537 124 0zm299 0l0 537 -125 0 0 -537 125 0zm-2421 0l0 537 -124 0 0 -537 124 0zm299 0l0 537 -125 0 0 -537 125 0zm298 0l0 537 -124 0 0 -537 124 0zm299 0l0 537 -125 0 0 -537 125 0zm-2421 0l0 537 -124 0 0 -537 124 0zm299 0l0 537 -125 0 0 -537 125 0zm298 0l0 537 -124 0 0 -537 124 0zm298 0l0 537 -124 0 0 -537 124 0zm-2420 0l0 537 -124 0 0 -537 124 0zm299 0l0 537 -125 0 0 -537 125 0zm298 0l0 537 -125 0 0 -537 125 0zm298 0l0 537 -124 0 0 -537 124 0zm-2420 0l0 537 -125 0 0 -537 125 0zm298 0l0 537 -124 0 0 -537 124 0zm299 0l0 537 -125 0 0 -537 125 0zm298 0l0 537 -124 0 0 -537 124 0zm-2420 0l0 537 -125 0 0 -537 125 0zm298 0l0 537 -124 0 0 -537 124 0zm299 0l0 537 -125 0 0 -537 125 0zm298 0l0 537 -124 0 0 -537 124 0zm-2420 0l0 537 -125 0 0 -537 125 0zm298 0l0 537 -124 0 0 -537 124 0zm299 0l0 537 -125 0 0 -537 125 0zm298 0l0 537 -125 0 0 -537 125 0zm28082 -6043l0 536 -124 0 0 -536 124 0zm298 0l0 536 -124 0 0 -536 124 0zm299 0l0 536 -125 0 0 -536 125 0zm298 0l0 536 -124 0 0 -536 124 0zm-895 16636l0 536 -124 0 0 -536 124 0zm298 0l0 536 -124 0 0 -536 124 0zm299 0l0 536 -125 0 0 -536 125 0zm298 0l0 536 -124 0 0 -536 124 0zm-2420 -16636l0 536 -125 0 0 -536 125 0zm298 0l0 536 -124 0 0 -536 124 0zm299 0l0 536 -125 0 0 -536 125 0zm298 0l0 536 -124 0 0 -536 124 0zm-895 16636l0 536 -125 0 0 -536 125 0zm298 0l0 536 -124 0 0 -536 124 0zm299 0l0 536 -125 0 0 -536 125 0zm298 0l0 536 -124 0 0 -536 124 0zm-2420 -16636l0 536 -125 0 0 -536 125 0zm298 0l0 536 -124 0 0 -536 124 0zm299 0l0 536 -125 0 0 -536 125 0zm298 0l0 536 -125 0 0 -536 125 0zm-895 16636l0 536 -125 0 0 -536 125 0zm298 0l0 536 -124 0 0 -536 124 0zm299 0l0 536 -125 0 0 -536 125 0zm298 0l0 536 -125 0 0 -536 125 0zm-2420 -16636l0 536 -125 0 0 -536 125 0zm298 0l0 536 -124 0 0 -536 124 0zm298 0l0 536 -124 0 0 -536 124 0zm299 0l0 536 -125 0 0 -536 125 0zm-895 16636l0 536 -125 0 0 -536 125 0zm298 0l0 536 -124 0 0 -536 124 0zm298 0l0 536 -124 0 0 -536 124 0zm299 0l0 536 -125 0 0 -536 125 0zm-2420 -16636l0 536 -125 0 0 -536 125 0zm298 0l0 536 -125 0 0 -536 125 0zm298 0l0 536 -124 0 0 -536 124 0zm299 0l0 536 -125 0 0 -536 125 0zm-895 16636l0 536 -125 0 0 -536 125 0zm298 0l0 536 -125 0 0 -536 125 0zm298 0l0 536 -124 0 0 -536 124 0zm299 0l0 536 -125 0 0 -536 125 0zm-2421 -16636l0 536 -124 0 0 -536 124 0zm299 0l0 536 -125 0 0 -536 125 0zm298 0l0 536 -124 0 0 -536 124 0zm299 0l0 536 -125 0 0 -536 125 0zm-896 16636l0 536 -124 0 0 -536 124 0zm299 0l0 536 -125 0 0 -536 125 0zm298 0l0 536 -124 0 0 -536 124 0zm299 0l0 536 -125 0 0 -536 125 0zm-2421 -16636l0 536 -124 0 0 -536 124 0zm299 0l0 536 -125 0 0 -536 125 0zm298 0l0 536 -124 0 0 -536 124 0zm299 0l0 536 -125 0 0 -536 125 0zm-896 16636l0 536 -124 0 0 -536 124 0zm299 0l0 536 -125 0 0 -536 125 0zm298 0l0 536 -124 0 0 -536 124 0zm299 0l0 536 -125 0 0 -536 125 0zm-2421 -16636l0 536 -124 0 0 -536 124 0zm299 0l0 536 -125 0 0 -536 125 0zm298 0l0 536 -125 0 0 -536 125 0zm298 0l0 536 -124 0 0 -536 124 0zm-895 16636l0 536 -124 0 0 -536 124 0zm299 0l0 536 -125 0 0 -536 125 0zm298 0l0 536 -125 0 0 -536 125 0zm298 0l0 536 -124 0 0 -536 124 0zm-2420 -16636l0 536 -124 0 0 -536 124 0zm298 0l0 536 -124 0 0 -536 124 0zm299 0l0 536 -125 0 0 -536 125 0zm298 0l0 536 -124 0 0 -536 124 0zm-895 16636l0 536 -124 0 0 -536 124 0zm298 0l0 536 -124 0 0 -536 124 0zm299 0l0 536 -125 0 0 -536 125 0zm298 0l0 536 -124 0 0 -536 124 0zm-2420 -16636l0 536 -125 0 0 -536 125 0zm298 0l0 536 -124 0 0 -536 124 0zm299 0l0 536 -125 0 0 -536 125 0zm298 0l0 536 -124 0 0 -536 124 0zm-895 16636l0 536 -125 0 0 -536 125 0zm298 0l0 536 -124 0 0 -536 124 0zm299 0l0 536 -125 0 0 -536 125 0zm298 0l0 536 -124 0 0 -536 124 0zm-2420 -16636l0 536 -125 0 0 -536 125 0zm298 0l0 536 -124 0 0 -536 124 0zm299 0l0 536 -125 0 0 -536 125 0zm298 0l0 536 -124 0 0 -536 124 0zm-895 16636l0 536 -125 0 0 -536 125 0zm298 0l0 536 -124 0 0 -536 124 0zm299 0l0 536 -125 0 0 -536 125 0zm298 0l0 536 -124 0 0 -536 124 0zm-2420 -16636l0 536 -125 0 0 -536 125 0zm298 0l0 536 -124 0 0 -536 124 0zm299 0l0 536 -125 0 0 -536 125 0zm298 0l0 536 -125 0 0 -536 125 0zm-895 16636l0 536 -125 0 0 -536 125 0zm298 0l0 536 -124 0 0 -536 124 0zm299 0l0 536 -125 0 0 -536 125 0zm298 0l0 536 -125 0 0 -536 125 0zm-2420 -16636l0 536 -125 0 0 -536 125 0zm298 0l0 536 -125 0 0 -536 125 0zm298 0l0 536 -124 0 0 -536 124 0zm299 0l0 536 -125 0 0 -536 125 0zm-895 16636l0 536 -125 0 0 -536 125 0zm298 0l0 536 -125 0 0 -536 125 0zm298 0l0 536 -124 0 0 -536 124 0zm299 0l0 536 -125 0 0 -536 125 0zm-2421 -16636l0 536 -124 0 0 -536 124 0zm299 0l0 536 -125 0 0 -536 125 0zm298 0l0 536 -124 0 0 -536 124 0zm299 0l0 536 -125 0 0 -536 125 0zm-896 16636l0 536 -124 0 0 -536 124 0zm299 0l0 536 -125 0 0 -536 125 0zm298 0l0 536 -124 0 0 -536 124 0zm299 0l0 536 -125 0 0 -536 125 0zm-2421 -16636l0 536 -124 0 0 -536 124 0zm299 0l0 536 -125 0 0 -536 125 0zm298 0l0 536 -124 0 0 -536 124 0zm299 0l0 536 -125 0 0 -536 125 0zm-896 16636l0 536 -124 0 0 -536 124 0zm299 0l0 536 -125 0 0 -536 125 0zm298 0l0 536 -124 0 0 -536 124 0zm299 0l0 536 -125 0 0 -536 125 0zm-2421 -16636l0 536 -124 0 0 -536 124 0zm299 0l0 536 -125 0 0 -536 125 0zm298 0l0 536 -124 0 0 -536 124 0zm298 0l0 536 -124 0 0 -536 124 0zm-895 16636l0 536 -124 0 0 -536 124 0zm299 0l0 536 -125 0 0 -536 125 0zm298 0l0 536 -124 0 0 -536 124 0zm298 0l0 536 -124 0 0 -536 124 0zm-2420 -16636l0 536 -124 0 0 -536 124 0zm299 0l0 536 -125 0 0 -536 125 0zm298 0l0 536 -125 0 0 -536 125 0zm298 0l0 536 -124 0 0 -536 124 0zm-895 16636l0 536 -124 0 0 -536 124 0zm299 0l0 536 -125 0 0 -536 125 0zm298 0l0 536 -125 0 0 -536 125 0zm298 0l0 536 -124 0 0 -536 124 0zm-2420 -16636l0 536 -125 0 0 -536 125 0zm298 0l0 536 -124 0 0 -536 124 0zm299 0l0 536 -125 0 0 -536 125 0zm298 0l0 536 -124 0 0 -536 124 0zm-895 16636l0 536 -125 0 0 -536 125 0zm298 0l0 536 -124 0 0 -536 124 0zm299 0l0 536 -125 0 0 -536 125 0zm298 0l0 536 -124 0 0 -536 124 0zm-2420 -16636l0 536 -125 0 0 -536 125 0zm298 0l0 536 -124 0 0 -536 124 0zm299 0l0 536 -125 0 0 -536 125 0zm298 0l0 536 -124 0 0 -536 124 0zm-895 16636l0 536 -125 0 0 -536 125 0zm298 0l0 536 -124 0 0 -536 124 0zm299 0l0 536 -125 0 0 -536 125 0zm298 0l0 536 -124 0 0 -536 124 0zm-2420 -16636l0 536 -125 0 0 -536 125 0zm298 0l0 536 -124 0 0 -536 124 0zm299 0l0 536 -125 0 0 -536 125 0zm298 0l0 536 -125 0 0 -536 125 0zm-895 16636l0 536 -125 0 0 -536 125 0zm298 0l0 536 -124 0 0 -536 124 0zm299 0l0 536 -125 0 0 -536 125 0zm298 0l0 536 -125 0 0 -536 125 0zm29267 -16714l0 17328 2790 0 0 -17328 -2790 0zm-156 17328l0 -17328 -1369 0 0 17328 1369 0zm-1525 0l0 -17328 -1369 0 0 17328 1369 0zm-1525 0l0 -17328 -1370 0 0 17328 1370 0zm-1525 0l0 -17328 -1370 0 0 17328 1370 0zm-1525 0l0 -17328 -1370 0 0 17328 1370 0zm-1525 0l0 -17328 -1370 0 0 17328 1370 0zm-1526 0l0 -17328 -1369 0 0 17328 1369 0zm-1525 0l0 -17328 -1369 0 0 17328 1369 0zm-1525 0l0 -17328 -1369 0 0 17328 1369 0zm-1525 0l0 -17328 -1369 0 0 17328 1369 0zm-1525 0l0 -17328 -1370 0 0 17328 1370 0zm-1525 0l0 -17328 -1370 0 0 17328 1370 0zm-1525 0l0 -17328 -1370 0 0 17328 1370 0zm-1525 0l0 -17328 -1370 0 0 17328 1370 0zm-1526 0l0 -17328 -1369 0 0 17328 1369 0zm-1525 0l0 -17328 -1369 0 0 17328 1369 0zm-1525 0l0 -17328 -1369 0 0 17328 1369 0zm-1525 0l0 -17328 -1369 0 0 17328 1369 0zm-1525 0l0 -17328 -1369 0 0 17328 1369 0zm-1525 0l0 -17328 -1370 0 0 17328 1370 0zm-1525 0l0 -17328 -2872 0 0 17328 2872 0z"/>
 </g>
</svg>
